<?xml version="1.0" encoding="utf-8"?>
<!-- Generator: Adobe Illustrator 21.0.2, SVG Export Plug-In . SVG Version: 6.00 Build 0)  -->
<svg version="1.1" id="Layer_1" xmlns="http://www.w3.org/2000/svg" xmlns:xlink="http://www.w3.org/1999/xlink" x="0px" y="0px"
	 viewBox="0 0 512 512" style="enable-background:new 0 0 512 512;" xml:space="preserve">
<style type="text/css">
	.st0{fill:#2196F7;}
</style>
<g>
	<g>
		<path class="st0" d="M247.9,301.2c0-14.6-3.4-27-10.3-37.2c-6.8-10.1-17.6-19.1-32.3-26.9c-14.7-7.8-36.9-15.8-66.6-23.9
			c-29.7-8.2-52-16.4-66.9-24.8c-14.9-8.3-25.8-18-32.7-29c-6.9-11-10.4-24.4-10.4-40.1c0-25,10.5-45.3,31.6-60.7
			c21.1-15.5,48.5-23.2,82.3-23.2c22,0,41.8,4.3,59.3,12.9c17.5,8.6,31.1,20.6,40.7,36.1c9.6,15.5,14.4,33,14.4,52.5h-12.7
			c0-25.6-9.4-46.8-28.3-63.6c-18.9-16.7-43.3-25.1-73.4-25.1c-30.2,0-54.6,6.7-73.2,20.2c-18.6,13.4-28,30.3-28,50.6
			c0,20.6,8.1,37.2,24.3,49.8C82,181.2,108.7,192.4,146,202c37.3,9.7,64.6,20.9,81.9,33.6c22,16.2,33,37.9,33,65.1
			c0,17.3-4.9,32.6-14.6,45.9c-9.8,13.3-23.6,23.6-41.5,30.8c-17.9,7.2-38.1,10.9-60.4,10.9c-24.8,0-47.2-4.1-67-12.4
			c-19.8-8.3-34.7-20-44.7-35.3c-10-15.3-15-33.3-15-54h12.7c0,28.2,10.5,50,31.6,65.6c21.1,15.6,48.5,23.4,82.3,23.4
			c30,0,54.8-6.9,74.3-20.6C238.2,341.1,247.9,323.2,247.9,301.2z"/>
		<path class="st0" d="M442.6,280.9H274.4l-38.2,102.6h-13.9L350.8,40.1h15.6L495,383.5H481L442.6,280.9z M279.1,268.2h158.8
			L358.6,55.4L279.1,268.2z"/>
	</g>
	<g>
		<path class="st0" d="M31.3,444.3l2.2,8.7l11.8-37.3h2L59,453l2.3-8.7l8.2-28.6h2.3L60.1,456h-2l-9.9-30.2l-1.9-7.2l-2,7.2
			L34.4,456h-2l-11.7-40.2h2.3L31.3,444.3z"/>
		<path class="st0" d="M96.2,456.7c-3.2,0-6.2-0.9-8.9-2.6c-2.7-1.7-4.8-4.1-6.4-7.2c-1.5-3-2.3-6.4-2.3-10.2v-1.7
			c0-3.7,0.7-7.1,2.2-10.2s3.5-5.5,6.1-7.3c2.6-1.7,5.4-2.6,8.5-2.6c4.5,0,8.2,1.6,11,4.8c2.9,3.2,4.3,7.4,4.3,12.6v2.1H80.6v2.2
			c0,3.3,0.7,6.3,2.1,9.1c1.4,2.8,3.3,5,5.7,6.6c2.4,1.6,5,2.4,7.9,2.4c2.7,0,5-0.4,6.9-1.3c1.9-0.9,3.6-2.3,5-4.2l1.4,1
			C106.5,454.6,102.1,456.7,96.2,456.7z M95.4,417c-3.9,0-7.2,1.5-10,4.4c-2.7,2.9-4.3,6.6-4.8,11.1h28V432c0-2.7-0.6-5.3-1.7-7.6
			c-1.2-2.3-2.7-4.2-4.8-5.5S97.9,417,95.4,417z"/>
		<path class="st0" d="M150.8,436.2c0,6.3-1.4,11.3-4.1,15c-2.7,3.7-6.4,5.5-11,5.5c-3,0-5.7-0.6-8.1-1.9c-2.4-1.3-4.3-3-5.6-5.2
			v6.4h-2v-57.1h2v24.2c1.4-2.7,3.3-4.7,5.6-6c2.3-1.4,5-2,8.1-2c4.7,0,8.4,1.8,11.1,5.4c2.7,3.6,4.1,8.7,4.1,15.2V436.2z
			 M148.8,435.5c0-5.8-1.1-10.3-3.4-13.6c-2.3-3.3-5.5-4.9-9.6-4.9c-3.4,0-6.2,0.9-8.6,2.6s-4,4.3-5.1,7.7v18.4
			c1.1,2.9,2.8,5.1,5.1,6.6s5.2,2.3,8.6,2.3c4.1,0,7.3-1.6,9.6-4.9C147.6,446.5,148.8,441.7,148.8,435.5z"/>
		<path class="st0" d="M175.1,432.2h-17.5v-2h17.5V432.2z"/>
		<path class="st0" d="M182.5,435.5c0-6.4,1.4-11.4,4.1-15c2.7-3.6,6.4-5.4,11.1-5.4c3,0,5.7,0.7,8,2c2.3,1.4,4.2,3.4,5.6,6.1v-24.3
			h2V456h-2v-6.4c-1.4,2.3-3.2,4-5.6,5.3c-2.4,1.3-5.1,1.9-8.1,1.9c-4.7,0-8.3-1.8-11-5.5c-2.7-3.7-4.1-8.8-4.1-15.2V435.5z
			 M184.6,436.2c0,5.7,1.1,10.2,3.4,13.5c2.3,3.3,5.5,5,9.6,5c3.3,0,6.2-0.7,8.5-2.2c2.4-1.5,4.1-3.6,5.2-6.5v-18.9
			c-2.3-6.8-6.9-10.2-13.7-10.2c-4.1,0-7.3,1.6-9.6,4.9C185.7,425.1,184.6,429.9,184.6,436.2z"/>
		<path class="st0" d="M240.5,456.7c-3.2,0-6.2-0.9-8.9-2.6c-2.7-1.7-4.8-4.1-6.4-7.2c-1.5-3-2.3-6.4-2.3-10.2v-1.7
			c0-3.7,0.7-7.1,2.2-10.2s3.5-5.5,6.1-7.3c2.6-1.7,5.4-2.6,8.5-2.6c4.5,0,8.2,1.6,11,4.8c2.9,3.2,4.3,7.4,4.3,12.6v2.1h-30.2v2.2
			c0,3.3,0.7,6.3,2.1,9.1c1.4,2.8,3.3,5,5.7,6.6c2.4,1.6,5,2.4,7.9,2.4c2.7,0,5-0.4,6.9-1.3c1.9-0.9,3.6-2.3,5-4.2l1.4,1
			C250.9,454.6,246.4,456.7,240.5,456.7z M239.8,417c-3.9,0-7.2,1.5-10,4.4c-2.7,2.9-4.3,6.6-4.8,11.1h28V432c0-2.7-0.6-5.3-1.7-7.6
			c-1.2-2.3-2.7-4.2-4.8-5.5S242.3,417,239.8,417z"/>
		<path class="st0" d="M275.8,452.8l14.5-37h2.2L276.7,456h-2l-15.6-40.2h2.2L275.8,452.8z"/>
		<path class="st0" d="M314.3,456.7c-3.2,0-6.2-0.9-8.9-2.6c-2.7-1.7-4.8-4.1-6.4-7.2c-1.5-3-2.3-6.4-2.3-10.2v-1.7
			c0-3.7,0.7-7.1,2.2-10.2c1.5-3.1,3.5-5.5,6.1-7.3c2.6-1.7,5.4-2.6,8.5-2.6c4.5,0,8.2,1.6,11,4.8c2.9,3.2,4.3,7.4,4.3,12.6v2.1
			h-30.2v2.2c0,3.3,0.7,6.3,2.1,9.1s3.3,5,5.7,6.6c2.4,1.6,5,2.4,7.9,2.4c2.7,0,5-0.4,6.9-1.3c1.9-0.9,3.6-2.3,5-4.2l1.4,1
			C324.7,454.6,320.2,456.7,314.3,456.7z M313.6,417c-3.9,0-7.2,1.5-10,4.4c-2.7,2.9-4.3,6.6-4.8,11.1h28V432c0-2.7-0.6-5.3-1.7-7.6
			c-1.2-2.3-2.7-4.2-4.8-5.5S316.1,417,313.6,417z"/>
		<path class="st0" d="M340.7,456h-2v-57.1h2V456z"/>
		<path class="st0" d="M350.9,435.1c0-3.8,0.7-7.3,2.2-10.4c1.5-3.1,3.6-5.4,6.2-7.2s5.7-2.6,9.1-2.6c3.4,0,6.4,0.8,9.1,2.5
			c2.7,1.7,4.8,4,6.3,7.1c1.5,3,2.3,6.5,2.3,10.3v1.8c0,3.9-0.7,7.3-2.2,10.4s-3.5,5.4-6.2,7.1c-2.7,1.7-5.7,2.6-9.1,2.6
			c-3.4,0-6.4-0.8-9.1-2.5c-2.7-1.7-4.8-4-6.3-7.1c-1.5-3-2.2-6.5-2.3-10.2V435.1z M352.9,436.6c0,3.3,0.7,6.4,2,9.2
			c1.3,2.8,3.2,5,5.5,6.5c2.4,1.6,5.1,2.3,8.1,2.3c4.6,0,8.3-1.7,11.2-5.2c2.9-3.4,4.3-7.9,4.3-13.3v-1.2c0-3.3-0.7-6.3-2-9.2
			c-1.3-2.8-3.2-5-5.6-6.6c-2.4-1.6-5.1-2.4-8.1-2.4c-4.6,0-8.3,1.7-11.2,5.2c-2.9,3.5-4.4,7.9-4.4,13.2V436.6z"/>
		<path class="st0" d="M426.6,436.2c0,6.3-1.4,11.3-4.1,15c-2.7,3.7-6.4,5.5-11,5.5c-3,0-5.8-0.6-8.1-1.9c-2.4-1.2-4.2-3-5.6-5.1
			v21.7h-2v-55.7h2v7.2c1.4-2.6,3.3-4.5,5.6-5.9c2.4-1.4,5-2,8-2c4.7,0,8.4,1.8,11.1,5.4c2.7,3.6,4.1,8.7,4.1,15.2V436.2z
			 M424.6,435.5c0-5.8-1.1-10.3-3.4-13.6c-2.3-3.3-5.5-4.9-9.7-4.9c-3.4,0-6.2,0.9-8.6,2.6s-4.1,4.3-5.1,7.5V446
			c1,2.8,2.7,4.9,5.1,6.5c2.4,1.5,5.3,2.3,8.6,2.3c4.1,0,7.3-1.6,9.6-4.9C423.4,446.5,424.6,441.8,424.6,435.5z"/>
		<path class="st0" d="M452,456.7c-3.2,0-6.2-0.9-8.9-2.6c-2.7-1.7-4.8-4.1-6.4-7.2c-1.5-3-2.3-6.4-2.3-10.2v-1.7
			c0-3.7,0.7-7.1,2.2-10.2c1.5-3.1,3.5-5.5,6.1-7.3c2.6-1.7,5.4-2.6,8.5-2.6c4.5,0,8.2,1.6,11,4.8c2.9,3.2,4.3,7.4,4.3,12.6v2.1
			h-30.2v2.2c0,3.3,0.7,6.3,2.1,9.1s3.3,5,5.7,6.6c2.4,1.6,5,2.4,7.9,2.4c2.7,0,5-0.4,6.9-1.3c1.9-0.9,3.6-2.3,5-4.2l1.4,1
			C462.4,454.6,457.9,456.7,452,456.7z M451.3,417c-3.9,0-7.2,1.5-10,4.4c-2.7,2.9-4.3,6.6-4.8,11.1h28V432c0-2.7-0.6-5.3-1.7-7.6
			c-1.2-2.3-2.7-4.2-4.8-5.5S453.8,417,451.3,417z"/>
		<path class="st0" d="M493.7,417.2l-2.6-0.2c-3.4,0-6.3,1.1-8.6,3.3c-2.3,2.2-3.8,5.3-4.5,9.3V456h-2v-40.2h2v8.4
			c1.1-2.8,2.7-5,4.9-6.7c2.2-1.6,4.9-2.5,8.2-2.5c1.2,0,2.1,0.1,2.8,0.4L493.7,417.2z"/>
	</g>
</g>
</svg>
